<svg version="1.1" viewBox="0 0 96 96" xmlns="http://www.w3.org/2000/svg" xmlns:xlink="http://www.w3.org/1999/xlink" id="Icons_Gears" overflow="hidden"><g><path d=" M 59.3 37.3 C 55.1 37.3 51.8 33.9 51.8 29.8 C 51.8 25.7 55.2 22.3 59.3 22.3 C 63.5 22.3 66.8 25.7 66.8 29.8 C 66.8 33.9 63.4 37.3 59.3 37.3 Z M 76.2 25.1 C 75.8 23.7 75.3 22.4 74.6 21.2 L 76.2 16.5 L 72.6 12.9 L 67.9 14.5 C 66.7 13.8 65.4 13.3 64 12.9 L 61.8 8.5 L 56.8 8.5 L 54.6 12.9 C 53.2 13.3 51.9 13.8 50.7 14.5 L 46 12.9 L 42.4 16.5 L 44 21.2 C 43.3 22.4 42.8 23.7 42.4 25.1 L 38 27.3 L 38 32.3 L 42.4 34.5 C 42.8 35.9 43.3 37.2 44 38.4 L 42.4 43.1 L 45.9 46.6 L 50.6 45 C 51.8 45.7 53.1 46.2 54.5 46.6 L 56.7 51 L 61.7 51 L 63.9 46.6 C 65.3 46.2 66.6 45.7 67.8 45 L 72.5 46.6 L 76.1 43.1 L 74.5 38.4 C 75.2 37.2 75.8 35.8 76.2 34.5 L 80.6 32.3 L 80.6 27.3 L 76.2 25.1 Z"/><path d=" M 36.7 73.7 C 32.5 73.7 29.2 70.3 29.2 66.2 C 29.2 62 32.6 58.7 36.7 58.7 C 40.9 58.7 44.2 62.1 44.2 66.2 C 44.2 70.3 40.9 73.7 36.7 73.7 L 36.7 73.7 Z M 52 57.6 L 53.6 52.9 L 50 49.3 L 45.3 50.9 C 44.1 50.2 42.7 49.7 41.4 49.3 L 39.2 44.9 L 34.2 44.9 L 32 49.3 C 30.6 49.7 29.3 50.2 28.1 50.9 L 23.4 49.3 L 19.9 52.8 L 21.4 57.5 C 20.7 58.7 20.2 60.1 19.8 61.4 L 15.4 63.6 L 15.4 68.6 L 19.8 70.8 C 20.2 72.2 20.7 73.5 21.4 74.7 L 19.9 79.4 L 23.4 82.9 L 28.1 81.4 C 29.3 82.1 30.6 82.6 32 83 L 34.2 87.4 L 39.2 87.4 L 41.4 83 C 42.8 82.6 44.1 82.1 45.3 81.4 L 50 83 L 53.5 79.4 L 52 74.8 C 52.7 73.6 53.2 72.3 53.6 70.9 L 58 68.7 L 58 63.7 L 53.6 61.5 C 53.2 60.1 52.7 58.8 52 57.6 Z"/></g></svg>