<svg version="1.1" viewBox="0 0 96 96" xmlns="http://www.w3.org/2000/svg" xmlns:xlink="http://www.w3.org/1999/xlink" id="Icons_Disk" overflow="hidden"><rect x="34" y="24" width="6" height="15"/><path d=" M 66 43 L 30 43 L 30 20 L 66 20 L 66 43 Z M 48 69 C 42.5 69 38 64.5 38 59 C 38 53.5 42.5 49 48 49 C 53.5 49 58 53.5 58 59 C 58 64.5 53.5 69 48 69 Z M 78 14 L 66 14 L 30 14 L 24 14 L 14 24 L 14 78 C 14 80.2 15.8 82 18 82 L 78 82 C 80.2 82 82 80.2 82 78 L 82 18 C 82 15.8 80.2 14 78 14 Z"/><rect x="45" y="56" width="6" height="6"/></svg>