<svg version="1.1" viewBox="0 0 96 96" xmlns="http://www.w3.org/2000/svg" xmlns:xlink="http://www.w3.org/1999/xlink" id="Icons_Unlock" overflow="hidden"><g><path d=" M 48 46 L 33 47.1 L 33 29 C 33 20.7 39.7 14 48 14 C 56.3 14 63 20.7 63 29 L 63 35 L 69 35 L 69 29 C 69 17.4 59.6 8 48 8 C 36.4 8 27 17.4 27 29 L 27 47.5 L 20 48 L 20 86 L 48 88 L 76 86 L 76 48 L 48 46 Z M 50 72.7 L 50 78 L 46 78 L 46 72.7 C 43.7 71.9 42 69.7 42 67 C 42 63.7 44.7 61 48 61 C 51.3 61 54 63.7 54 67 C 54 69.6 52.3 71.8 50 72.7 Z"/></g></svg>